<svg width="111" height="27" viewBox="0 0 111 27" fill="none" xmlns="http://www.w3.org/2000/svg">
<path d="M17.304 3.152L11.328 20H6.192L0.216 3.152H4.584L8.76 15.872L12.96 3.152H17.304ZM32.6432 13.088C32.6432 13.472 32.6193 13.872 32.5713 14.288H23.2833C23.3473 15.12 23.6113 15.76 24.0753 16.208C24.5553 16.64 25.1393 16.856 25.8273 16.856C26.8513 16.856 27.5633 16.424 27.9633 15.56H32.3313C32.1073 16.44 31.6993 17.232 31.1073 17.936C30.5313 18.64 29.8033 19.192 28.9233 19.592C28.0433 19.992 27.0593 20.192 25.9713 20.192C24.6593 20.192 23.4913 19.912 22.4673 19.352C21.4433 18.792 20.6433 17.992 20.0673 16.952C19.4913 15.912 19.2033 14.696 19.2033 13.304C19.2033 11.912 19.4833 10.696 20.0433 9.656C20.6193 8.616 21.4193 7.816 22.4433 7.256C23.4673 6.696 24.6433 6.416 25.9713 6.416C27.2673 6.416 28.4193 6.688 29.4273 7.232C30.4353 7.776 31.2193 8.552 31.7793 9.56C32.3553 10.568 32.6432 11.744 32.6432 13.088ZM28.4433 12.008C28.4433 11.304 28.2033 10.744 27.7233 10.328C27.2433 9.912 26.6433 9.704 25.9233 9.704C25.2353 9.704 24.6513 9.904 24.1713 10.304C23.7073 10.704 23.4193 11.272 23.3073 12.008H28.4433ZM43.9683 6.464C45.5363 6.464 46.7843 6.976 47.7123 8C48.6563 9.008 49.1283 10.4 49.1283 12.176V20H45.0483V12.728C45.0483 11.832 44.8163 11.136 44.3523 10.64C43.8883 10.144 43.2643 9.896 42.4803 9.896C41.6963 9.896 41.0723 10.144 40.6083 10.64C40.1443 11.136 39.9123 11.832 39.9123 12.728V20H35.8083V6.608H39.9123V8.384C40.3283 7.792 40.8883 7.328 41.5923 6.992C42.2963 6.64 43.0883 6.464 43.9683 6.464ZM60.4442 16.52V20H58.3562C56.8682 20 55.7082 19.64 54.8762 18.92C54.0442 18.184 53.6282 16.992 53.6282 15.344V10.016H51.9962V6.608H53.6282V3.344H57.7322V6.608H60.4202V10.016H57.7322V15.392C57.7322 15.792 57.8282 16.08 58.0202 16.256C58.2122 16.432 58.5322 16.52 58.9802 16.52H60.4442ZM69.1782 20.192C68.0102 20.192 66.9702 19.992 66.0582 19.592C65.1462 19.192 64.4262 18.648 63.8982 17.96C63.3702 17.256 63.0742 16.472 63.0102 15.608H67.0662C67.1142 16.072 67.3302 16.448 67.7142 16.736C68.0982 17.024 68.5702 17.168 69.1302 17.168C69.6422 17.168 70.0342 17.072 70.3062 16.88C70.5942 16.672 70.7382 16.408 70.7382 16.088C70.7382 15.704 70.5382 15.424 70.1382 15.248C69.7382 15.056 69.0902 14.848 68.1942 14.624C67.2342 14.4 66.4342 14.168 65.7942 13.928C65.1542 13.672 64.6022 13.28 64.1382 12.752C63.6742 12.208 63.4422 11.48 63.4422 10.568C63.4422 9.8 63.6502 9.104 64.0662 8.48C64.4982 7.84 65.1222 7.336 65.9382 6.968C66.7702 6.6 67.7542 6.416 68.8902 6.416C70.5702 6.416 71.8902 6.832 72.8502 7.664C73.8262 8.496 74.3862 9.6 74.5302 10.976H70.7382C70.6742 10.512 70.4662 10.144 70.1142 9.872C69.7782 9.6 69.3302 9.464 68.7702 9.464C68.2902 9.464 67.9222 9.56 67.6662 9.752C67.4102 9.928 67.2822 10.176 67.2822 10.496C67.2822 10.88 67.4822 11.168 67.8822 11.36C68.2982 11.552 68.9382 11.744 69.8022 11.936C70.7942 12.192 71.6022 12.448 72.2262 12.704C72.8502 12.944 73.3942 13.344 73.8582 13.904C74.3382 14.448 74.5862 15.184 74.6022 16.112C74.6022 16.896 74.3782 17.6 73.9302 18.224C73.4982 18.832 72.8662 19.312 72.0342 19.664C71.2182 20.016 70.2662 20.192 69.1782 20.192ZM80.177 5.216C79.457 5.216 78.865 5.008 78.401 4.592C77.953 4.16 77.729 3.632 77.729 3.008C77.729 2.368 77.953 1.84 78.401 1.424C78.865 0.991999 79.457 0.775999 80.177 0.775999C80.881 0.775999 81.457 0.991999 81.905 1.424C82.369 1.84 82.601 2.368 82.601 3.008C82.601 3.632 82.369 4.16 81.905 4.592C81.457 5.008 80.881 5.216 80.177 5.216ZM82.217 6.608V20H78.113V6.608H82.217ZM93.6551 16.52V20H91.5671C90.0791 20 88.9191 19.64 88.0871 18.92C87.2551 18.184 86.8391 16.992 86.8391 15.344V10.016H85.2071V6.608H86.8391V3.344H90.9431V6.608H93.6311V10.016H90.9431V15.392C90.9431 15.792 91.0391 16.08 91.2311 16.256C91.4231 16.432 91.7431 16.52 92.1911 16.52H93.6551ZM110.621 6.608L102.221 26.36H97.8051L100.877 19.544L95.4291 6.608H100.013L103.109 14.984L106.181 6.608H110.621Z" fill="#5F2EEA"/>
</svg>
